<svg width="120" height="120" viewBox="0 0 120 120" fill="none" xmlns="http://www.w3.org/2000/svg">
<path d="M59.0368 39.1824C58.5188 39.2423 58.0608 39.4606 57.7312 39.7902C57.3159 40.2098 57.0805 40.7748 56.9092 41.7637C56.8236 42.2517 56.8151 42.4486 56.8108 44.0111C56.8108 45.0171 56.8322 46.0317 56.8664 46.4726C56.9478 47.5642 57.0034 48.2663 57.0548 48.8699C57.0762 49.1652 57.1019 49.512 57.1104 49.6404C57.1147 49.7688 57.1533 50.2997 57.1918 50.8176C57.4529 54.4649 57.5385 56.143 57.4957 56.8536C57.4401 57.7697 57.3502 58.3305 57.2603 58.3305C57.2046 58.3305 57.0077 57.958 56.845 57.5385C56.5026 56.6481 56.1729 55.351 55.5694 52.4657C55.3425 51.3955 55.2868 51.1173 55.1413 50.4538C55.0428 50.0086 54.6104 47.9966 54.4949 47.4358C54.2466 46.2628 53.8913 45.03 53.5916 44.2979C53.0822 43.0522 52.4315 42.3844 51.5753 42.226C50.7149 42.0676 49.7175 42.6926 49.4092 43.583C49.2765 43.9812 49.2337 44.5591 49.2894 45.3039C49.3921 46.6139 49.6233 47.911 50.4709 51.8878C50.7834 53.3476 50.8861 53.8142 51.2029 55.2269C51.6267 57.119 51.8279 58.3219 51.8836 59.238C51.9007 59.5462 51.8921 59.6276 51.8322 59.7003L51.7594 59.786L51.5325 59.6575C51.4041 59.5805 51.2842 59.4735 51.2543 59.4092C51.2286 59.345 51.1259 59.1567 51.0274 58.994C50.7235 58.4717 50.1926 57.286 49.8759 56.4255C49.7988 56.2115 49.7132 55.9931 49.6875 55.9332C49.6618 55.8733 49.5291 55.5265 49.3878 55.1627C48.5873 53.0907 47.8039 51.5282 47.1875 50.7877C46.9649 50.5137 46.5154 50.2183 46.1387 50.0942C45.8776 50.0086 45.7877 50 45.5009 50.0257C45.1498 50.0556 44.9401 50.1541 44.4692 50.5094C44.2808 50.6464 44.0325 50.976 44.0325 51.083C44.0325 51.113 44.0154 51.1387 43.9983 51.1387C43.9598 51.1387 43.9255 51.2414 43.7971 51.6909C43.6515 52.2132 43.7714 53.2877 44.101 54.3921C44.2295 54.8202 44.5548 55.7577 44.8031 56.4255C44.9015 56.6824 45.0257 57.0205 45.0813 57.1747C45.137 57.3288 45.2825 57.7226 45.4024 58.0522C46.0017 59.6789 46.9264 62.4957 47.3074 63.8527C47.7055 65.2697 47.7397 65.4067 48.3433 67.9409C48.9812 70.6293 49.6062 72.4272 50.5608 74.3193C51.464 76.1173 52.4486 77.2988 53.75 78.1635C54.9914 78.9812 56.2243 79.405 58.0522 79.6361C58.9598 79.7474 60.6507 79.7389 61.5753 79.6104C63.1635 79.3964 64.2295 79.0796 65.5437 78.4289C67.5899 77.4187 69.0069 76.0702 70.5522 73.6558C70.7791 73.3048 71.4726 72.1532 71.4726 72.1318C71.4726 72.1233 71.5283 72.0205 71.601 71.9007C71.6695 71.7808 71.845 71.4598 71.9906 71.1815C72.1361 70.9075 72.3502 70.4966 72.47 70.274C72.5899 70.0514 72.7226 69.7945 72.7654 69.7089C72.8082 69.6233 72.8596 69.5377 72.8853 69.5248C72.9067 69.512 72.9281 69.4606 72.9281 69.4135C72.9281 69.3707 72.9452 69.3322 72.9623 69.3322C72.9795 69.3322 73.0522 69.208 73.1207 69.0539C73.1892 68.8998 73.2577 68.7757 73.2706 68.7757C73.2877 68.7757 73.3733 68.6558 73.4632 68.5103C74.1224 67.4315 75.1241 66.0317 76.0574 64.9015C77.637 62.9794 78.018 62.4272 78.2577 61.7252C78.4974 61.0231 78.3733 60.3639 77.8938 59.7902C77.4229 59.2294 76.982 59.0154 76.2457 58.9854C75.7406 58.964 75.2269 59.0497 74.8416 59.2252C74.7432 59.268 74.5933 59.3322 74.512 59.3707C74.2509 59.4777 73.7072 59.8202 73.2791 60.137C72.8767 60.4452 71.8579 61.3998 71.8579 61.4726C71.8579 61.494 71.7851 61.5796 71.6952 61.6652C71.4598 61.8921 71.0916 62.3245 70.4366 63.1507C69.8031 63.9469 69.3836 64.3878 69.2123 64.4306C69.0582 64.4692 68.964 64.3579 68.8741 64.024C68.8057 63.7757 68.7971 63.5402 68.7971 61.8622C68.7971 60.0728 68.8271 59.268 68.9726 56.9606C69.0625 55.5308 69.2808 52.9495 69.5976 49.4692C69.726 48.095 69.7346 46.0146 69.619 45.3896C69.3579 43.9983 68.7671 43.2577 67.7954 43.0907C66.7723 42.9195 65.8305 43.6986 65.4195 45.0599C65.3211 45.3938 65.274 45.6122 65.0771 46.6866C64.9743 47.2389 64.726 48.9683 64.6276 49.833C64.5762 50.2568 64.5163 50.7491 64.4949 50.9247C64.4735 51.1002 64.405 51.661 64.345 52.1661C64.0882 54.3493 63.7243 56.4384 63.4632 57.2389C63.2449 57.9195 63.0265 58.0308 62.8853 57.5257C62.851 57.393 62.8039 57.2217 62.7825 57.1532C62.7312 56.9863 62.6241 56.0959 62.5685 55.3981C62.5428 55.0899 62.5043 54.619 62.4829 54.3493C62.4615 54.0796 62.4229 53.4247 62.3973 52.8938C62.3716 52.363 62.3416 51.8236 62.3245 51.6952C62.3116 51.5668 62.2988 51.3741 62.3031 51.2671C62.3116 50.1156 62.0634 45.7063 61.9007 44.2252C61.6182 41.5882 61.2457 40.3425 60.5479 39.6789C60.2611 39.4092 60.0471 39.2979 59.6575 39.2166C59.3579 39.1524 59.2937 39.1481 59.0368 39.1824ZM59.7175 40.0728C60.4195 40.3681 60.8904 41.9306 61.1558 44.8673C61.2628 46.0188 61.4084 48.6002 61.4726 50.4324C61.5796 53.4717 61.7851 56.2586 61.9692 57.2175C62.1661 58.2363 62.4957 58.643 63.125 58.6473C64.0668 58.6558 64.4906 57.4272 65.0514 53.0437C65.1199 52.5 65.2055 51.8279 65.244 51.5454C65.2783 51.2628 65.3553 50.6164 65.4152 50.1113C65.6635 47.9837 66.0274 45.7834 66.2243 45.1969C66.5582 44.2166 67.1618 43.7329 67.8125 43.9255C68.3776 44.0882 68.7329 44.7517 68.8613 45.8947C68.9426 46.6267 68.8913 48.4289 68.7543 49.726C68.7457 49.833 68.7029 50.2654 68.6687 50.6892C68.6301 51.113 68.5616 51.8921 68.5146 52.4229C68.3305 54.5034 68.1293 57.1875 68.0694 58.3519C67.9709 60.3639 67.9538 63.5488 68.0351 64.0026C68.1592 64.6747 68.4375 65.0856 68.8527 65.2055C69.4906 65.3938 69.9957 65.0257 71.1944 63.5103C72.3673 62.0334 73.0009 61.3741 73.9341 60.6592C74.2423 60.4281 74.9315 60.0514 75.2868 59.9272C75.7021 59.7817 76.28 59.7474 76.6182 59.8459C76.9007 59.9272 77.2346 60.2055 77.4144 60.5094C77.5171 60.6806 77.53 60.7491 77.53 61.0745C77.53 61.4084 77.5171 61.464 77.3673 61.768C77.1575 62.1875 76.6909 62.8425 75.8947 63.8185C74.2594 65.8219 73.7286 66.5411 72.9452 67.8125C72.5086 68.5145 72.3288 68.827 71.9563 69.5248C71.5111 70.3467 70.625 71.9777 70.4966 72.2003C70.0385 73.0094 68.8956 74.6704 68.4375 75.1969C67.8596 75.8604 67.0719 76.5625 66.3784 77.0248C65.9118 77.333 65.8134 77.3887 65.2226 77.6798C64.9272 77.8253 64.6533 77.9623 64.6104 77.988C64.5676 78.0094 64.3151 78.1036 64.0539 78.1978C61.4341 79.1395 57.988 79.1438 55.595 78.2192C53.9683 77.5856 52.6798 76.4212 51.6182 74.6104C51.2158 73.9255 50.5094 72.333 50.1413 71.2757C49.7089 70.0385 49.5505 69.452 48.6815 65.8776C48.0009 63.0822 47.0548 60.1284 45.6122 56.2757C44.8502 54.2551 44.5848 53.2663 44.5762 52.4229C44.5634 51.7337 44.6533 51.4255 44.9401 51.1558C45.6336 50.5051 46.2885 50.7491 46.9906 51.9178C47.2303 52.3159 47.7483 53.3305 47.9024 53.6986C47.958 53.8356 48.0865 54.1267 48.1807 54.3493C48.3348 54.7003 48.5873 55.3296 48.9084 56.1687C49.649 58.0865 50 58.8827 50.3039 59.3151C50.3767 59.4221 50.4623 59.5719 50.4923 59.6447C50.5608 59.8202 51.1045 60.3382 51.3313 60.4495C51.5711 60.5651 52.0077 60.5651 52.2046 60.4495C52.3288 60.3767 52.637 59.9144 52.5642 59.9144C52.5514 59.9144 52.5685 59.8844 52.5985 59.8416C52.6884 59.7389 52.6755 58.6087 52.5813 57.9923C52.4615 57.2303 52.1704 55.8219 51.6995 53.7072C51.601 53.2705 51.4555 52.5985 51.3741 52.2089C51.2928 51.8193 51.1558 51.1858 51.0745 50.7962C50.3425 47.3801 50.1027 45.9118 50.0942 44.8031C50.0899 43.9854 50.1498 43.7414 50.4324 43.4375C50.9546 42.881 51.6438 42.8895 52.1618 43.4589C52.7226 44.0753 53.2106 45.3596 53.6644 47.4401C53.9212 48.6173 54.101 49.4606 54.2637 50.2397C54.3579 50.6764 54.4991 51.357 54.5848 51.7594C54.6704 52.1575 54.786 52.7098 54.8416 52.9794C55.3168 55.2526 55.7192 56.8407 56.0531 57.7568C56.2928 58.4247 56.6096 58.8955 56.9435 59.1053C57.1747 59.2466 57.5214 59.2337 57.7269 59.0711C58.0651 58.8056 58.232 58.2235 58.2877 57.1233C58.3176 56.5068 58.2834 54.6875 58.2235 54.0068C58.2106 53.8527 58.1807 53.3904 58.1592 52.9794C58.1079 52.1575 57.9709 50.2825 57.9024 49.512C57.7483 47.7997 57.6027 45.0856 57.6027 43.857C57.6027 41.3913 57.9366 40.3253 58.7885 40.0813C59.2166 39.9572 59.4392 39.9572 59.7175 40.0728Z" fill="black"/>
</svg>
